<svg width="364" height="364" viewBox="0 0 364 364" fill="none" xmlns="http://www.w3.org/2000/svg">
<circle cx="182" cy="182" r="182" fill="black"/>
<path d="M129.75 279H103.5C97.8333 279 94.0833 278.083 92.25 276.25C90.5833 274.417 89.75 270.667 89.75 265V112.75C89.75 106.917 90.6667 103.083 92.5 101.25C94.3333 99.25 98 98.25 103.5 98.25H129.75V279ZM192 168V183C192 189 191.417 192.833 190.25 194.5C189.083 196 185.75 196.75 180.25 196.75H139.75V168H192ZM202 98.25V119.75C202 125.417 201.083 129.167 199.25 131C197.417 132.667 193.583 133.5 187.75 133.5H139.75V98.25H202Z" fill="url(#paint0_linear_53_28)"/>
<path d="M235.25 85.7H261.5C267.167 85.7 270.917 86.6166 272.75 88.45C274.417 90.2833 275.25 94.0333 275.25 99.7V251.95C275.25 257.783 274.333 261.617 272.5 263.45C270.667 265.45 267 266.45 261.5 266.45H235.25L235.25 85.7ZM173 196.7V181.7C173 175.7 173.583 171.867 174.75 170.2C175.917 168.7 179.25 167.95 184.75 167.95H225.25V196.7L173 196.7ZM163 266.45V244.95C163 239.283 163.917 235.533 165.75 233.7C167.583 232.033 171.417 231.2 177.25 231.2H225.25V266.45H163Z" fill="url(#paint1_linear_53_28)"/>
<defs>
<linearGradient id="paint0_linear_53_28" x1="152" y1="32" x2="152" y2="316" gradientUnits="userSpaceOnUse">
<stop stop-color="#FF3D00"/>
<stop offset="1" stop-color="#FBC403"/>
</linearGradient>
<linearGradient id="paint1_linear_53_28" x1="213" y1="332.7" x2="213" y2="48.7" gradientUnits="userSpaceOnUse">
<stop stop-color="#FF3D00"/>
<stop offset="1" stop-color="#FBC403"/>
</linearGradient>
</defs>
</svg>
