<svg width="221" height="301" viewBox="0 0 221 301" fill="none" xmlns="http://www.w3.org/2000/svg">
<path d="M57.75 247H31.5C25.8333 247 22.0833 246.083 20.25 244.25C18.5833 242.417 17.75 238.667 17.75 233V80.75C17.75 74.9167 18.6667 71.0833 20.5 69.25C22.3333 67.25 26 66.25 31.5 66.25H57.75V247ZM120 136V151C120 157 119.417 160.833 118.25 162.5C117.083 164 113.75 164.75 108.25 164.75H67.75V136H120ZM130 66.25V87.75C130 93.4167 129.083 97.1667 127.25 99C125.417 100.667 121.583 101.5 115.75 101.5H67.75V66.25H130Z" fill="url(#paint0_linear_53_28)"/>
<path d="M163.25 53.7H189.5C195.167 53.7 198.917 54.6166 200.75 56.45C202.417 58.2833 203.25 62.0333 203.25 67.7L203.25 219.95C203.25 225.783 202.333 229.617 200.5 231.45C198.667 233.45 195 234.45 189.5 234.45H163.25L163.25 53.7ZM101 164.7V149.7C101 143.7 101.583 139.867 102.75 138.2C103.917 136.7 107.25 135.95 112.75 135.95H153.25V164.7L101 164.7ZM91 234.45V212.95C91 207.283 91.9167 203.533 93.75 201.7C95.5833 200.033 99.4167 199.2 105.25 199.2H153.25V234.45H91Z" fill="url(#paint1_linear_53_28)"/>
<defs>
<linearGradient id="paint0_linear_53_28" x1="80" y1="0" x2="80" y2="284" gradientUnits="userSpaceOnUse">
<stop stop-color="#FF3D00"/>
<stop offset="1" stop-color="#FBC403"/>
</linearGradient>
<linearGradient id="paint1_linear_53_28" x1="141" y1="300.7" x2="141" y2="16.7" gradientUnits="userSpaceOnUse">
<stop stop-color="#FF3D00"/>
<stop offset="1" stop-color="#FBC403"/>
</linearGradient>
</defs>
</svg>
