<svg width="80" height="44" viewBox="0 0 80 44" fill="none" xmlns="http://www.w3.org/2000/svg">
<path fill-rule="evenodd" clip-rule="evenodd" d="M54 2C54 0.8954 54.8954 0 56 0H64C65.1046 0 66 0.8954 66 2V6H72C73.1046 6 74 6.8954 74 8V20H80V24H74V36C74 37.1046 73.1046 38 72 38H66V42C66 43.1046 65.1046 44 64 44H56C54.8954 44 54 43.1046 54 42V24H26V42C26 43.1046 25.1046 44 24 44H16C14.8954 44 14 43.1046 14 42V38H8C6.89544 38 6 37.1046 6 36V24H0V20H6V8C6 6.8954 6.89544 6 8 6H14V2C14 0.8954 14.8954 0 16 0H24C25.1046 0 26 0.8954 26 2V20H54V2ZM18 40H22V4H18V40ZM14 10H10V34H14V10ZM66 34V10H70V34H66ZM62 4V40H58V4H62Z" fill="url(#paint0_linear_104_5)"/>
<defs>
<linearGradient id="paint0_linear_104_5" x1="40" y1="0" x2="40" y2="44" gradientUnits="userSpaceOnUse">
<stop stop-color="#FE6100"/>
<stop offset="1" stop-color="#FBB002"/>
</linearGradient>
</defs>
</svg>
