<svg width="21" height="20" viewBox="0 0 21 20" fill="none" xmlns="http://www.w3.org/2000/svg">
<path d="M10.253 0C7.81837 0.000100956 5.46326 0.866489 3.60902 2.44414C1.75478 4.02179 0.522415 6.20776 0.132427 8.6109C-0.257561 11.014 0.220279 13.4775 1.48045 15.5606C2.74061 17.6437 4.70088 19.2104 7.01048 19.9804C7.52313 20.0701 7.71537 19.7625 7.71537 19.4934C7.71537 19.2499 7.70255 18.4424 7.70255 17.5838C5.12649 18.0579 4.46005 16.9558 4.25499 16.3791C4.02745 15.8182 3.66676 15.3211 3.20407 14.9308C2.84521 14.7386 2.33257 14.2644 3.19124 14.2516C3.51912 14.2872 3.83358 14.4013 4.108 14.5842C4.38241 14.7671 4.60868 15.0135 4.76764 15.3025C4.90787 15.5544 5.09643 15.7762 5.32251 15.9551C5.5486 16.134 5.80777 16.2665 6.08517 16.3451C6.36257 16.4237 6.65275 16.4468 6.93908 16.413C7.22541 16.3792 7.50227 16.2893 7.75378 16.1483C7.79817 15.6271 8.03047 15.1398 8.40742 14.7771C6.12615 14.5207 3.74234 13.6364 3.74234 9.71468C3.72794 8.69568 4.10395 7.7098 4.79327 6.9592C4.47982 6.07357 4.51649 5.10166 4.8958 4.24218C4.8958 4.24218 5.75445 3.97303 7.71535 5.2931C9.39303 4.83169 11.1641 4.83169 12.8418 5.2931C14.8027 3.96022 15.6614 4.24218 15.6614 4.24218C16.0407 5.10165 16.0774 6.07358 15.7639 6.9592C16.4553 7.70851 16.8316 8.69526 16.8148 9.71468C16.8148 13.6492 14.4182 14.5207 12.1369 14.7771C12.3816 15.0251 12.5701 15.3228 12.6895 15.6501C12.8089 15.9774 12.8565 16.3265 12.829 16.6738C12.829 18.0452 12.8162 19.1473 12.8162 19.4934C12.8162 19.7625 13.0084 20.0829 13.5211 19.9804C15.8266 19.2041 17.7812 17.6338 19.036 15.5496C20.2908 13.4655 20.7641 11.0033 20.3714 8.60245C19.9787 6.20163 18.7456 4.0185 16.8922 2.44277C15.0388 0.867039 12.6857 0.00126614 10.253 0Z" fill="white"/>
</svg>
