<svg width="20" height="21" viewBox="0 0 20 21" fill="none" xmlns="http://www.w3.org/2000/svg">
<path d="M2.47553 4.59963H2.44566C2.12939 4.6194 1.81245 4.57366 1.51467 4.46527C1.2169 4.35689 0.944711 4.18819 0.715149 3.96975C0.485586 3.7513 0.303595 3.48782 0.18057 3.19579C0.0575449 2.90376 -0.00386402 2.58948 0.000188251 2.27262C0.00424052 1.95576 0.0736668 1.64315 0.20412 1.35436C0.334573 1.06558 0.523243 0.806831 0.758316 0.59433C0.99339 0.38183 1.2698 0.22015 1.57025 0.119415C1.8707 0.0186798 2.18871 -0.0189414 2.50437 0.00890712C2.82064 -0.0131869 3.13807 0.0302865 3.43675 0.136603C3.73544 0.242919 4.00895 0.409785 4.24013 0.626744C4.47131 0.843702 4.65519 1.10608 4.78023 1.39742C4.90528 1.68876 4.96879 2.00279 4.9668 2.31983C4.96481 2.63687 4.89735 2.95008 4.76866 3.23982C4.63996 3.52957 4.45281 3.78961 4.21891 4.00365C3.98502 4.21769 3.70944 4.38111 3.40944 4.48366C3.10945 4.58622 2.7915 4.6257 2.47553 4.59963ZM0.42994 7.68964H4.54995V20.0497H0.42994V7.68964ZM15.365 7.68964C14.6708 7.69152 13.9859 7.85026 13.3617 8.15401C12.7374 8.45775 12.1899 8.89864 11.76 9.44374V7.68964H7.63996V20.0497H11.76V14.3847C11.76 13.8383 11.977 13.3143 12.3633 12.928C12.7497 12.5417 13.2736 12.3247 13.82 12.3247C14.3663 12.3247 14.8903 12.5417 15.2766 12.928C15.663 13.3143 15.88 13.8383 15.88 14.3847V20.0497H20V12.3247C20 11.0954 19.5117 9.91644 18.6424 9.04721C17.7732 8.17797 16.5943 7.68964 15.365 7.68964Z" fill="white"/>
</svg>
