<svg width="102" height="109" viewBox="0 0 102 109" fill="none" xmlns="http://www.w3.org/2000/svg">
<mask id="path-1-outside-1_96_8" maskUnits="userSpaceOnUse" x="0" y="0" width="102" height="109" fill="black">
<rect fill="white" width="102" height="109"/>
<path d="M100.356 70.9241L100.096 69.7425C97.9354 59.5336 94.3882 49.6688 89.553 40.4228C84.8184 31.3956 78.8937 23.0453 71.9375 15.5959C65.0266 10.2005 57.3278 5.90011 49.1108 2.84527L48.3702 2.56823C43.5927 0.782476 40.6968 -0.302325 35.8892 4.00684C33.3237 6.29994 25.2132 14.451 28.3693 23.2062C29.8406 27.2817 34.8083 32.5521 39.4524 31.8846C40.4858 31.714 41.4585 31.282 42.2782 30.6295C42.895 30.1082 43.6588 29.7921 44.4634 29.725C45.2478 29.674 46.0342 29.7877 46.7721 30.0588C47.978 30.4458 49.2357 30.6473 50.5021 30.6562C51.5039 30.6744 52.4988 30.4858 53.4246 30.1022C53.7795 29.9312 54.1726 29.8552 54.5656 29.8819C56.4169 30.1588 58.0869 31.1481 59.2197 32.6389C59.9063 33.6071 60.3739 34.7133 60.5899 35.8805C60.806 37.0478 60.7653 38.2481 60.4708 39.3981C60.436 39.5344 60.4181 39.6746 60.4174 39.8153V57.7496C56.7364 56.4983 52.7864 56.2616 48.9824 57.0645C45.1784 57.8674 41.6606 59.6801 38.7985 62.3124C32.7909 59.0368 25.7423 58.2379 19.1546 60.0861C15.8308 60.9888 12.7294 62.5694 10.0453 64.7286C7.36126 66.8878 5.15243 69.579 3.55757 72.6331C1.70787 76.4447 0.83742 80.6576 1.025 84.8906C1.21257 89.1236 2.45225 93.2429 4.63184 96.8759C6.76474 100.665 9.87578 103.811 13.6397 105.985C16.4741 107.332 19.5962 107.962 22.731 107.817C24.4926 107.817 26.2975 107.697 28.0691 107.534C29.8338 107.314 31.577 106.947 33.2803 106.435C35.6222 105.563 38.1364 105.253 40.6201 105.531C45.241 106.621 50.0344 106.765 54.7124 105.955C65.5466 103.679 75.8039 99.219 84.8588 92.8471C90.1239 89.4106 94.8677 85.2345 98.9445 80.447C99.9754 79.1135 100.647 77.5375 100.894 75.87C101.141 74.2025 100.956 72.4994 100.356 70.9241ZM96.3022 78.4142C92.4255 82.9236 87.9264 86.8573 82.9405 90.0967C74.2763 96.1995 64.4607 100.473 54.0919 102.657C49.8762 103.384 45.5571 103.252 41.3941 102.266C38.3722 101.825 35.2882 102.143 32.4195 103.191C30.9021 103.654 29.3487 103.989 27.7755 104.192C23.5607 104.952 19.2186 104.546 15.2178 103.018C11.9939 101.14 9.33159 98.4325 7.5077 95.1769C5.61172 92.0289 4.52924 88.4581 4.35799 84.7868C4.18675 81.1155 4.93213 77.4594 6.52684 74.1484C7.91136 71.5036 9.82757 69.1737 12.1551 67.3051C14.4827 65.4366 17.1713 64.0697 20.052 63.2904C25.5596 61.7354 31.4519 62.332 36.5365 64.9593C35.7856 65.9832 35.1543 67.0897 34.6548 68.2571C33.4836 71.092 33.0997 74.1908 33.5439 77.2259C33.6008 77.6229 33.7987 77.9861 34.1013 78.249C34.404 78.512 34.7911 78.6571 35.192 78.6579C35.272 78.6626 35.3522 78.6626 35.4322 78.6579C35.8696 78.5943 36.2639 78.3596 36.5285 78.0054C36.7931 77.6512 36.9063 77.2064 36.8434 76.7686C36.4864 74.3304 36.793 71.8409 37.7309 69.5622C38.4292 67.8863 39.4597 66.3694 40.7602 65.1029L40.7835 65.0695C43.4736 62.4898 46.8849 60.7905 50.5638 60.1979C54.2427 59.6052 58.0148 60.1472 61.3783 61.7517C61.6324 61.8728 61.9131 61.9276 62.1941 61.9109C62.4751 61.8943 62.7474 61.8067 62.9855 61.6565C63.2236 61.5062 63.4198 61.2981 63.5559 61.0515C63.692 60.805 63.7634 60.5279 63.7637 60.2463V40.0089C64.1409 38.396 64.1673 36.7207 63.8409 35.0967C63.5145 33.4727 62.8431 31.9379 61.872 30.5962C61.0229 29.4771 59.9567 28.5412 58.7373 27.8443C57.518 27.1474 56.1706 26.704 54.7758 26.5407C53.9052 26.479 53.0327 26.6302 52.2336 26.9813C51.6985 27.2511 51.099 27.3666 50.5021 27.3151C49.5482 27.3066 48.6014 27.1489 47.6963 26.8478C46.564 26.4614 45.3672 26.3004 44.1732 26.3738C42.7822 26.4883 41.4553 27.0082 40.3565 27.8691C39.9622 28.2085 39.486 28.4386 38.9753 28.5367C36.3863 28.8705 32.6364 25.1989 31.5021 22.0412C29.557 16.6506 33.6406 10.4589 38.1079 6.46684C41.4274 3.49949 42.6485 3.96345 47.1992 5.66575L47.9465 5.94613C52.1768 7.52962 56.2707 9.45642 60.1872 11.7073C63.4935 13.6066 66.6689 15.7253 69.6922 18.0492C76.3614 25.2422 82.047 33.2888 86.6004 41.9782C91.2936 50.9514 94.7364 60.5255 96.8327 70.4334L97.1062 71.6617C97.7702 74.6057 98.1038 76.0777 96.3022 78.4142ZM71.0601 83.4711C70.6716 83.2596 70.2151 83.2112 69.791 83.3364C69.3668 83.4615 69.0097 83.7501 68.7981 84.1386C66.8174 87.7965 63.6998 90.7093 59.917 92.4365C57.3729 93.505 54.6331 94.0273 51.8746 93.9698C49.116 93.9123 46.4003 93.2763 43.9029 92.1027C43.7033 91.9845 43.4811 91.9092 43.2507 91.8817C43.0203 91.8542 42.7867 91.8751 42.5648 91.943C42.3429 92.011 42.1376 92.1245 41.9621 92.2764C41.7866 92.4282 41.6446 92.615 41.5454 92.8248C41.4461 93.0347 41.3916 93.2629 41.3856 93.495C41.3795 93.7271 41.4218 93.9579 41.5099 94.1726C41.5981 94.3874 41.73 94.5814 41.8973 94.7423C42.0647 94.9031 42.2637 95.0273 42.4817 95.1068C45.6238 96.5442 49.0355 97.2963 52.4905 97.3131C55.5109 97.3212 58.4989 96.6899 61.2581 95.4606C65.7089 93.432 69.3781 90.0082 71.7106 85.7074C71.915 85.3234 71.9613 84.8747 71.8398 84.4569C71.7182 84.0392 71.4385 83.6854 71.0601 83.4711Z"/>
</mask>
<path d="M100.356 70.9241L100.096 69.7425C97.9354 59.5336 94.3882 49.6688 89.553 40.4228C84.8184 31.3956 78.8937 23.0453 71.9375 15.5959C65.0266 10.2005 57.3278 5.90011 49.1108 2.84527L48.3702 2.56823C43.5927 0.782476 40.6968 -0.302325 35.8892 4.00684C33.3237 6.29994 25.2132 14.451 28.3693 23.2062C29.8406 27.2817 34.8083 32.5521 39.4524 31.8846C40.4858 31.714 41.4585 31.282 42.2782 30.6295C42.895 30.1082 43.6588 29.7921 44.4634 29.725C45.2478 29.674 46.0342 29.7877 46.7721 30.0588C47.978 30.4458 49.2357 30.6473 50.5021 30.6562C51.5039 30.6744 52.4988 30.4858 53.4246 30.1022C53.7795 29.9312 54.1726 29.8552 54.5656 29.8819C56.4169 30.1588 58.0869 31.1481 59.2197 32.6389C59.9063 33.6071 60.3739 34.7133 60.5899 35.8805C60.806 37.0478 60.7653 38.2481 60.4708 39.3981C60.436 39.5344 60.4181 39.6746 60.4174 39.8153V57.7496C56.7364 56.4983 52.7864 56.2616 48.9824 57.0645C45.1784 57.8674 41.6606 59.6801 38.7985 62.3124C32.7909 59.0368 25.7423 58.2379 19.1546 60.0861C15.8308 60.9888 12.7294 62.5694 10.0453 64.7286C7.36126 66.8878 5.15243 69.579 3.55757 72.6331C1.70787 76.4447 0.83742 80.6576 1.025 84.8906C1.21257 89.1236 2.45225 93.2429 4.63184 96.8759C6.76474 100.665 9.87578 103.811 13.6397 105.985C16.4741 107.332 19.5962 107.962 22.731 107.817C24.4926 107.817 26.2975 107.697 28.0691 107.534C29.8338 107.314 31.577 106.947 33.2803 106.435C35.6222 105.563 38.1364 105.253 40.6201 105.531C45.241 106.621 50.0344 106.765 54.7124 105.955C65.5466 103.679 75.8039 99.219 84.8588 92.8471C90.1239 89.4106 94.8677 85.2345 98.9445 80.447C99.9754 79.1135 100.647 77.5375 100.894 75.87C101.141 74.2025 100.956 72.4994 100.356 70.9241ZM96.3022 78.4142C92.4255 82.9236 87.9264 86.8573 82.9405 90.0967C74.2763 96.1995 64.4607 100.473 54.0919 102.657C49.8762 103.384 45.5571 103.252 41.3941 102.266C38.3722 101.825 35.2882 102.143 32.4195 103.191C30.9021 103.654 29.3487 103.989 27.7755 104.192C23.5607 104.952 19.2186 104.546 15.2178 103.018C11.9939 101.14 9.33159 98.4325 7.5077 95.1769C5.61172 92.0289 4.52924 88.4581 4.35799 84.7868C4.18675 81.1155 4.93213 77.4594 6.52684 74.1484C7.91136 71.5036 9.82757 69.1737 12.1551 67.3051C14.4827 65.4366 17.1713 64.0697 20.052 63.2904C25.5596 61.7354 31.4519 62.332 36.5365 64.9593C35.7856 65.9832 35.1543 67.0897 34.6548 68.2571C33.4836 71.092 33.0997 74.1908 33.5439 77.2259C33.6008 77.6229 33.7987 77.9861 34.1013 78.249C34.404 78.512 34.7911 78.6571 35.192 78.6579C35.272 78.6626 35.3522 78.6626 35.4322 78.6579C35.8696 78.5943 36.2639 78.3596 36.5285 78.0054C36.7931 77.6512 36.9063 77.2064 36.8434 76.7686C36.4864 74.3304 36.793 71.8409 37.7309 69.5622C38.4292 67.8863 39.4597 66.3694 40.7602 65.1029L40.7835 65.0695C43.4736 62.4898 46.8849 60.7905 50.5638 60.1979C54.2427 59.6052 58.0148 60.1472 61.3783 61.7517C61.6324 61.8728 61.9131 61.9276 62.1941 61.9109C62.4751 61.8943 62.7474 61.8067 62.9855 61.6565C63.2236 61.5062 63.4198 61.2981 63.5559 61.0515C63.692 60.805 63.7634 60.5279 63.7637 60.2463V40.0089C64.1409 38.396 64.1673 36.7207 63.8409 35.0967C63.5145 33.4727 62.8431 31.9379 61.872 30.5962C61.0229 29.4771 59.9567 28.5412 58.7373 27.8443C57.518 27.1474 56.1706 26.704 54.7758 26.5407C53.9052 26.479 53.0327 26.6302 52.2336 26.9813C51.6985 27.2511 51.099 27.3666 50.5021 27.3151C49.5482 27.3066 48.6014 27.1489 47.6963 26.8478C46.564 26.4614 45.3672 26.3004 44.1732 26.3738C42.7822 26.4883 41.4553 27.0082 40.3565 27.8691C39.9622 28.2085 39.486 28.4386 38.9753 28.5367C36.3863 28.8705 32.6364 25.1989 31.5021 22.0412C29.557 16.6506 33.6406 10.4589 38.1079 6.46684C41.4274 3.49949 42.6485 3.96345 47.1992 5.66575L47.9465 5.94613C52.1768 7.52962 56.2707 9.45642 60.1872 11.7073C63.4935 13.6066 66.6689 15.7253 69.6922 18.0492C76.3614 25.2422 82.047 33.2888 86.6004 41.9782C91.2936 50.9514 94.7364 60.5255 96.8327 70.4334L97.1062 71.6617C97.7702 74.6057 98.1038 76.0777 96.3022 78.4142ZM71.0601 83.4711C70.6716 83.2596 70.2151 83.2112 69.791 83.3364C69.3668 83.4615 69.0097 83.7501 68.7981 84.1386C66.8174 87.7965 63.6998 90.7093 59.917 92.4365C57.3729 93.505 54.6331 94.0273 51.8746 93.9698C49.116 93.9123 46.4003 93.2763 43.9029 92.1027C43.7033 91.9845 43.4811 91.9092 43.2507 91.8817C43.0203 91.8542 42.7867 91.8751 42.5648 91.943C42.3429 92.011 42.1376 92.1245 41.9621 92.2764C41.7866 92.4282 41.6446 92.615 41.5454 92.8248C41.4461 93.0347 41.3916 93.2629 41.3856 93.495C41.3795 93.7271 41.4218 93.9579 41.5099 94.1726C41.5981 94.3874 41.73 94.5814 41.8973 94.7423C42.0647 94.9031 42.2637 95.0273 42.4817 95.1068C45.6238 96.5442 49.0355 97.2963 52.4905 97.3131C55.5109 97.3212 58.4989 96.6899 61.2581 95.4606C65.7089 93.432 69.3781 90.0082 71.7106 85.7074C71.915 85.3234 71.9613 84.8747 71.8398 84.4569C71.7182 84.0392 71.4385 83.6854 71.0601 83.4711Z" fill="url(#paint0_linear_96_8)"/>
<path d="M100.356 70.9241L100.096 69.7425C97.9354 59.5336 94.3882 49.6688 89.553 40.4228C84.8184 31.3956 78.8937 23.0453 71.9375 15.5959C65.0266 10.2005 57.3278 5.90011 49.1108 2.84527L48.3702 2.56823C43.5927 0.782476 40.6968 -0.302325 35.8892 4.00684C33.3237 6.29994 25.2132 14.451 28.3693 23.2062C29.8406 27.2817 34.8083 32.5521 39.4524 31.8846C40.4858 31.714 41.4585 31.282 42.2782 30.6295C42.895 30.1082 43.6588 29.7921 44.4634 29.725C45.2478 29.674 46.0342 29.7877 46.7721 30.0588C47.978 30.4458 49.2357 30.6473 50.5021 30.6562C51.5039 30.6744 52.4988 30.4858 53.4246 30.1022C53.7795 29.9312 54.1726 29.8552 54.5656 29.8819C56.4169 30.1588 58.0869 31.1481 59.2197 32.6389C59.9063 33.6071 60.3739 34.7133 60.5899 35.8805C60.806 37.0478 60.7653 38.2481 60.4708 39.3981C60.436 39.5344 60.4181 39.6746 60.4174 39.8153V57.7496C56.7364 56.4983 52.7864 56.2616 48.9824 57.0645C45.1784 57.8674 41.6606 59.6801 38.7985 62.3124C32.7909 59.0368 25.7423 58.2379 19.1546 60.0861C15.8308 60.9888 12.7294 62.5694 10.0453 64.7286C7.36126 66.8878 5.15243 69.579 3.55757 72.6331C1.70787 76.4447 0.83742 80.6576 1.025 84.8906C1.21257 89.1236 2.45225 93.2429 4.63184 96.8759C6.76474 100.665 9.87578 103.811 13.6397 105.985C16.4741 107.332 19.5962 107.962 22.731 107.817C24.4926 107.817 26.2975 107.697 28.0691 107.534C29.8338 107.314 31.577 106.947 33.2803 106.435C35.6222 105.563 38.1364 105.253 40.6201 105.531C45.241 106.621 50.0344 106.765 54.7124 105.955C65.5466 103.679 75.8039 99.219 84.8588 92.8471C90.1239 89.4106 94.8677 85.2345 98.9445 80.447C99.9754 79.1135 100.647 77.5375 100.894 75.87C101.141 74.2025 100.956 72.4994 100.356 70.9241ZM96.3022 78.4142C92.4255 82.9236 87.9264 86.8573 82.9405 90.0967C74.2763 96.1995 64.4607 100.473 54.0919 102.657C49.8762 103.384 45.5571 103.252 41.3941 102.266C38.3722 101.825 35.2882 102.143 32.4195 103.191C30.9021 103.654 29.3487 103.989 27.7755 104.192C23.5607 104.952 19.2186 104.546 15.2178 103.018C11.9939 101.14 9.33159 98.4325 7.5077 95.1769C5.61172 92.0289 4.52924 88.4581 4.35799 84.7868C4.18675 81.1155 4.93213 77.4594 6.52684 74.1484C7.91136 71.5036 9.82757 69.1737 12.1551 67.3051C14.4827 65.4366 17.1713 64.0697 20.052 63.2904C25.5596 61.7354 31.4519 62.332 36.5365 64.9593C35.7856 65.9832 35.1543 67.0897 34.6548 68.2571C33.4836 71.092 33.0997 74.1908 33.5439 77.2259C33.6008 77.6229 33.7987 77.9861 34.1013 78.249C34.404 78.512 34.7911 78.6571 35.192 78.6579C35.272 78.6626 35.3522 78.6626 35.4322 78.6579C35.8696 78.5943 36.2639 78.3596 36.5285 78.0054C36.7931 77.6512 36.9063 77.2064 36.8434 76.7686C36.4864 74.3304 36.793 71.8409 37.7309 69.5622C38.4292 67.8863 39.4597 66.3694 40.7602 65.1029L40.7835 65.0695C43.4736 62.4898 46.8849 60.7905 50.5638 60.1979C54.2427 59.6052 58.0148 60.1472 61.3783 61.7517C61.6324 61.8728 61.9131 61.9276 62.1941 61.9109C62.4751 61.8943 62.7474 61.8067 62.9855 61.6565C63.2236 61.5062 63.4198 61.2981 63.5559 61.0515C63.692 60.805 63.7634 60.5279 63.7637 60.2463V40.0089C64.1409 38.396 64.1673 36.7207 63.8409 35.0967C63.5145 33.4727 62.8431 31.9379 61.872 30.5962C61.0229 29.4771 59.9567 28.5412 58.7373 27.8443C57.518 27.1474 56.1706 26.704 54.7758 26.5407C53.9052 26.479 53.0327 26.6302 52.2336 26.9813C51.6985 27.2511 51.099 27.3666 50.5021 27.3151C49.5482 27.3066 48.6014 27.1489 47.6963 26.8478C46.564 26.4614 45.3672 26.3004 44.1732 26.3738C42.7822 26.4883 41.4553 27.0082 40.3565 27.8691C39.9622 28.2085 39.486 28.4386 38.9753 28.5367C36.3863 28.8705 32.6364 25.1989 31.5021 22.0412C29.557 16.6506 33.6406 10.4589 38.1079 6.46684C41.4274 3.49949 42.6485 3.96345 47.1992 5.66575L47.9465 5.94613C52.1768 7.52962 56.2707 9.45642 60.1872 11.7073C63.4935 13.6066 66.6689 15.7253 69.6922 18.0492C76.3614 25.2422 82.047 33.2888 86.6004 41.9782C91.2936 50.9514 94.7364 60.5255 96.8327 70.4334L97.1062 71.6617C97.7702 74.6057 98.1038 76.0777 96.3022 78.4142ZM71.0601 83.4711C70.6716 83.2596 70.2151 83.2112 69.791 83.3364C69.3668 83.4615 69.0097 83.7501 68.7981 84.1386C66.8174 87.7965 63.6998 90.7093 59.917 92.4365C57.3729 93.505 54.6331 94.0273 51.8746 93.9698C49.116 93.9123 46.4003 93.2763 43.9029 92.1027C43.7033 91.9845 43.4811 91.9092 43.2507 91.8817C43.0203 91.8542 42.7867 91.8751 42.5648 91.943C42.3429 92.011 42.1376 92.1245 41.9621 92.2764C41.7866 92.4282 41.6446 92.615 41.5454 92.8248C41.4461 93.0347 41.3916 93.2629 41.3856 93.495C41.3795 93.7271 41.4218 93.9579 41.5099 94.1726C41.5981 94.3874 41.73 94.5814 41.8973 94.7423C42.0647 94.9031 42.2637 95.0273 42.4817 95.1068C45.6238 96.5442 49.0355 97.2963 52.4905 97.3131C55.5109 97.3212 58.4989 96.6899 61.2581 95.4606C65.7089 93.432 69.3781 90.0082 71.7106 85.7074C71.915 85.3234 71.9613 84.8747 71.8398 84.4569C71.7182 84.0392 71.4385 83.6854 71.0601 83.4711Z" stroke="url(#paint1_linear_96_8)" stroke-width="2" mask="url(#path-1-outside-1_96_8)"/>
<defs>
<linearGradient id="paint0_linear_96_8" x1="51" y1="1" x2="51" y2="107.838" gradientUnits="userSpaceOnUse">
<stop offset="0.525" stop-color="#FE6100"/>
<stop offset="1" stop-color="#FBB002"/>
</linearGradient>
<linearGradient id="paint1_linear_96_8" x1="51" y1="1" x2="51" y2="107.838" gradientUnits="userSpaceOnUse">
<stop stop-color="#FE6100"/>
<stop offset="1" stop-color="#FBB002"/>
</linearGradient>
</defs>
</svg>
