<svg width="100" height="100" viewBox="0 0 100 100" fill="none" xmlns="http://www.w3.org/2000/svg">
<path d="M50 35C47.0333 35 44.1332 35.8797 41.6664 37.528C39.1997 39.1762 37.2771 41.5189 36.1418 44.2597C35.0065 47.0006 34.7094 50.0166 35.2882 52.9264C35.867 55.8361 37.2956 58.5088 39.3934 60.6066C41.4912 62.7044 44.1639 64.133 47.0736 64.7118C49.9834 65.2906 52.9994 64.9935 55.7403 63.8582C58.4811 62.7229 60.8238 60.8003 62.472 58.3336C64.1203 55.8668 65 52.9667 65 50C65 46.0218 63.4196 42.2064 60.6066 39.3934C57.7936 36.5804 53.9782 35 50 35ZM50 55C49.0111 55 48.0444 54.7068 47.2221 54.1573C46.3999 53.6079 45.759 52.827 45.3806 51.9134C45.0022 50.9998 44.9031 49.9945 45.0961 49.0245C45.289 48.0546 45.7652 47.1637 46.4645 46.4645C47.1637 45.7652 48.0546 45.289 49.0245 45.0961C49.9945 44.9031 50.9998 45.0022 51.9134 45.3806C52.827 45.759 53.6079 46.3999 54.1573 47.2221C54.7068 48.0444 55 49.0111 55 50C55 51.3261 54.4732 52.5979 53.5355 53.5355C52.5979 54.4732 51.3261 55 50 55ZM95 45H89.65C88.534 36.1999 84.5245 28.0204 78.2521 21.7479C71.9796 15.4755 63.8001 11.466 55 10.35V5C55 3.67392 54.4732 2.40215 53.5355 1.46447C52.5979 0.526784 51.3261 0 50 0C48.6739 0 47.4021 0.526784 46.4645 1.46447C45.5268 2.40215 45 3.67392 45 5V10.35C36.1999 11.466 28.0204 15.4755 21.7479 21.7479C15.4755 28.0204 11.466 36.1999 10.35 45H5C3.67392 45 2.40215 45.5268 1.46447 46.4645C0.526784 47.4021 0 48.6739 0 50C0 51.3261 0.526784 52.5979 1.46447 53.5355C2.40215 54.4732 3.67392 55 5 55H10.35C11.466 63.8001 15.4755 71.9796 21.7479 78.2521C28.0204 84.5245 36.1999 88.534 45 89.65V95C45 96.3261 45.5268 97.5979 46.4645 98.5355C47.4021 99.4732 48.6739 100 50 100C51.3261 100 52.5979 99.4732 53.5355 98.5355C54.4732 97.5979 55 96.3261 55 95V89.65C63.8001 88.534 71.9796 84.5245 78.2521 78.2521C84.5245 71.9796 88.534 63.8001 89.65 55H95C96.3261 55 97.5979 54.4732 98.5355 53.5355C99.4732 52.5979 100 51.3261 100 50C100 48.6739 99.4732 47.4021 98.5355 46.4645C97.5979 45.5268 96.3261 45 95 45ZM50 80C44.0666 80 38.2664 78.2405 33.3329 74.9441C28.3994 71.6476 24.5542 66.9623 22.2836 61.4805C20.013 55.9987 19.4189 49.9667 20.5764 44.1473C21.734 38.3279 24.5912 32.9824 28.7868 28.7868C32.9824 24.5912 38.3279 21.734 44.1473 20.5764C49.9667 19.4189 55.9987 20.013 61.4805 22.2836C66.9623 24.5542 71.6476 28.3994 74.9441 33.3329C78.2405 38.2664 80 44.0666 80 50C80 57.9565 76.8393 65.5871 71.2132 71.2132C65.5871 76.8393 57.9565 80 50 80Z" fill="url(#paint0_linear_96_15)"/>
<defs>
<linearGradient id="paint0_linear_96_15" x1="50" y1="0" x2="50" y2="100" gradientUnits="userSpaceOnUse">
<stop stop-color="#FE6100"/>
<stop offset="1" stop-color="#FBB002"/>
</linearGradient>
</defs>
</svg>
