<svg width="100" height="100" viewBox="0 0 100 100" fill="none" xmlns="http://www.w3.org/2000/svg">
<path d="M88.6579 45.1258L88.7688 46H89.65H95C96.0609 46 97.0783 46.4214 97.8284 47.1716C98.5786 47.9217 99 48.9391 99 50C99 51.0609 98.5786 52.0783 97.8284 52.8284C97.0783 53.5786 96.0609 54 95 54H89.65H88.7688L88.6579 54.8742C87.5699 63.4543 83.6606 71.4293 77.545 77.545C71.4293 83.6606 63.4543 87.5699 54.8742 88.6579L54 88.7688V89.65V95C54 96.0609 53.5786 97.0783 52.8284 97.8284C52.0783 98.5786 51.0609 99 50 99C48.9391 99 47.9217 98.5786 47.1716 97.8284C46.4214 97.0783 46 96.0609 46 95V89.65V88.7688L45.1258 88.6579C36.5457 87.5699 28.5707 83.6606 22.455 77.545C16.3394 71.4293 12.4301 63.4543 11.3421 54.8742L11.2312 54H10.35H5C3.93913 54 2.92172 53.5786 2.17157 52.8284C1.42143 52.0783 1 51.0609 1 50C1 48.9391 1.42143 47.9217 2.17157 47.1716C2.92172 46.4214 3.93913 46 5 46H10.35H11.2312L11.3421 45.1258C12.4301 36.5457 16.3394 28.5707 22.455 22.455C28.5707 16.3394 36.5457 12.4301 45.1258 11.3421L46 11.2312V10.35V5C46 3.93913 46.4214 2.92172 47.1716 2.17157C47.9217 1.42143 48.9391 1 50 1C51.0609 1 52.0783 1.42143 52.8284 2.17157C53.5786 2.92172 54 3.93913 54 5V10.35V11.2312L54.8742 11.3421C63.4543 12.4301 71.4293 16.3394 77.545 22.455C83.6606 28.5707 87.5699 36.5457 88.6579 45.1258ZM42.222 38.3594C44.5243 36.8211 47.2311 36 50 36C53.713 36 57.274 37.475 59.8995 40.1005C62.525 42.726 64 46.287 64 50C64 52.7689 63.1789 55.4757 61.6406 57.778C60.1022 60.0803 57.9157 61.8747 55.3576 62.9343C52.7994 63.9939 49.9845 64.2712 47.2687 63.731C44.553 63.1908 42.0584 61.8574 40.1005 59.8995C38.1426 57.9416 36.8092 55.447 36.269 52.7313C35.7288 50.0155 36.0061 47.2006 37.0657 44.6424C38.1253 42.0843 39.9197 39.8978 42.222 38.3594ZM46.6666 54.9888C47.6533 55.6481 48.8133 56 50 56C51.5913 56 53.1174 55.3679 54.2426 54.2426C55.3679 53.1174 56 51.5913 56 50C56 48.8133 55.6481 47.6533 54.9888 46.6666C54.3295 45.6799 53.3925 44.9108 52.2961 44.4567C51.1997 44.0026 49.9933 43.8838 48.8295 44.1153C47.6656 44.3468 46.5965 44.9182 45.7574 45.7574C44.9182 46.5965 44.3468 47.6656 44.1153 48.8295C43.8838 49.9933 44.0026 51.1997 44.4567 52.2961C44.9108 53.3925 45.6799 54.3295 46.6666 54.9888ZM32.7773 75.7756C37.8752 79.1819 43.8688 81 50 81C58.2217 81 66.1067 77.7339 71.9203 71.9203C77.7339 66.1067 81 58.2217 81 50C81 43.8688 79.1819 37.8752 75.7756 32.7773C72.3692 27.6794 67.5277 23.7061 61.8632 21.3597C56.1987 19.0134 49.9656 18.3995 43.9522 19.5957C37.9388 20.7918 32.4151 23.7443 28.0797 28.0797C23.7443 32.4151 20.7918 37.9388 19.5957 43.9522C18.3995 49.9656 19.0134 56.1987 21.3597 61.8632C23.7061 67.5277 27.6794 72.3692 32.7773 75.7756Z" fill="url(#paint0_linear_96_15)" stroke="#2D0B04" stroke-width="2"/>
<defs>
<linearGradient id="paint0_linear_96_15" x1="50" y1="0" x2="50" y2="100" gradientUnits="userSpaceOnUse">
<stop stop-color="#FE6100"/>
<stop offset="1" stop-color="#FBB002"/>
</linearGradient>
</defs>
</svg>
