<svg width="21" height="15" viewBox="0 0 21 15" fill="none" xmlns="http://www.w3.org/2000/svg">
<path d="M20.9952 5.2006C21.0423 3.83517 20.7437 2.47997 20.1271 1.26081C19.7087 0.760562 19.128 0.422972 18.4863 0.306868C15.832 0.066021 13.1667 -0.0326941 10.5018 0.0111452C7.84663 -0.0346838 5.19091 0.0608458 2.5459 0.297328C2.02297 0.392452 1.53903 0.637735 1.15314 1.00325C0.294593 1.79502 0.199199 3.14962 0.103804 4.29435C-0.0346014 6.35254 -0.0346014 8.41771 0.103804 10.4759C0.131402 11.1202 0.227334 11.7597 0.389987 12.3838C0.505009 12.8656 0.737721 13.3114 1.06729 13.6812C1.4558 14.066 1.95101 14.3253 2.48866 14.4252C4.54528 14.6791 6.61754 14.7843 8.68929 14.74C12.0281 14.7877 14.9567 14.74 18.4195 14.4729C18.9704 14.3791 19.4795 14.1195 19.8791 13.7289C20.1461 13.4617 20.3456 13.1346 20.461 12.7749C20.8021 11.7281 20.9697 10.6325 20.957 9.5315C20.9952 8.99729 20.9952 5.77296 20.9952 5.2006ZM8.34587 10.1039V4.19896L13.9932 7.16572C12.4097 8.04335 10.3205 9.03545 8.34587 10.1039Z" fill="white"/>
</svg>
